# xmcd
#
# Track frame offsets: 
#        150
#        16380
#        40920
#        64217
#        78292
#        102885
#        128535
#        148182
#        164380
#        184022
#        206845
#        225860
#        240742
#
# Disc length: 3501 seconds
#
# Revision: 3
# Processed by: cddbd v1.5.2PL0 Copyright (c) Steve Scherf et al.
# Submitted via: ExactAudioCopyFreeDBPlugin 1.0
#
DISCID=a70dab0d
DTITLE=David Wilcox - Thirteen Songs
DYEAR=1996
DGENRE=Blues
TTITLE0=Crazy Blue
TTITLE1=God is on a Bender
TTITLE2=House by the River
TTITLE3=Hip Deep Water
TTITLE4=Peggy
TTITLE5=Three Past Midnight
TTITLE6=Walking Through Walls
TTITLE7=Rainy Night Saloon
TTITLE8=Shotgun City
TTITLE9=Alley Walking
TTITLE10=Truth and Fiction
TTITLE11=O Freedom
TTITLE12=Wings
EXTD=
EXTT0=
EXTT1=
EXTT2=
EXTT3=
EXTT4=
EXTT5=
EXTT6=
EXTT7=
EXTT8=
EXTT9=
EXTT10=
EXTT11=
EXTT12=
PLAYORDER=
